<mxfile host="app.diagrams.net" agent="Mozilla/5.0 (Windows NT 10.0; Win64; x64) AppleWebKit/537.36 (KHTML, like Gecko) Chrome/141.0.0.0 Safari/537.36 Edg/141.0.0.0" version="28.2.5">
  <diagram name="Página-1" id="qXG8Y0Q1xBn7sYwQ-01c">
    <mxGraphModel dx="1418" dy="820" grid="1" gridSize="10" guides="1" tooltips="1" connect="1" arrows="1" fold="1" page="1" pageScale="1" pageWidth="827" pageHeight="1169" math="0" shadow="0">
      <root>
        <mxCell id="0" />
        <mxCell id="1" parent="0" />
        <mxCell id="l9S8WbIlqziyYuwyFxNV-4" value="" style="edgeStyle=orthogonalEdgeStyle;rounded=0;orthogonalLoop=1;jettySize=auto;html=1;" edge="1" parent="1" source="l9S8WbIlqziyYuwyFxNV-2" target="l9S8WbIlqziyYuwyFxNV-3">
          <mxGeometry relative="1" as="geometry" />
        </mxCell>
        <mxCell id="l9S8WbIlqziyYuwyFxNV-2" value="Ínicio" style="ellipse;whiteSpace=wrap;html=1;" vertex="1" parent="1">
          <mxGeometry x="330" y="150" width="120" height="80" as="geometry" />
        </mxCell>
        <mxCell id="l9S8WbIlqziyYuwyFxNV-11" value="" style="edgeStyle=orthogonalEdgeStyle;rounded=0;orthogonalLoop=1;jettySize=auto;html=1;" edge="1" parent="1" source="l9S8WbIlqziyYuwyFxNV-3" target="l9S8WbIlqziyYuwyFxNV-5">
          <mxGeometry relative="1" as="geometry" />
        </mxCell>
        <mxCell id="l9S8WbIlqziyYuwyFxNV-3" value="Ler N" style="shape=parallelogram;perimeter=parallelogramPerimeter;whiteSpace=wrap;html=1;fixedSize=1;" vertex="1" parent="1">
          <mxGeometry x="330" y="280" width="120" height="60" as="geometry" />
        </mxCell>
        <mxCell id="l9S8WbIlqziyYuwyFxNV-8" value="" style="edgeStyle=orthogonalEdgeStyle;rounded=0;orthogonalLoop=1;jettySize=auto;html=1;" edge="1" parent="1" source="l9S8WbIlqziyYuwyFxNV-5" target="l9S8WbIlqziyYuwyFxNV-7">
          <mxGeometry relative="1" as="geometry" />
        </mxCell>
        <mxCell id="l9S8WbIlqziyYuwyFxNV-9" value="Sim" style="edgeLabel;html=1;align=center;verticalAlign=middle;resizable=0;points=[];" vertex="1" connectable="0" parent="l9S8WbIlqziyYuwyFxNV-8">
          <mxGeometry x="-0.2" y="-4" relative="1" as="geometry">
            <mxPoint as="offset" />
          </mxGeometry>
        </mxCell>
        <mxCell id="l9S8WbIlqziyYuwyFxNV-13" value="" style="edgeStyle=orthogonalEdgeStyle;rounded=0;orthogonalLoop=1;jettySize=auto;html=1;" edge="1" parent="1" source="l9S8WbIlqziyYuwyFxNV-5" target="l9S8WbIlqziyYuwyFxNV-12">
          <mxGeometry relative="1" as="geometry" />
        </mxCell>
        <mxCell id="l9S8WbIlqziyYuwyFxNV-5" value="N == 0" style="rhombus;whiteSpace=wrap;html=1;" vertex="1" parent="1">
          <mxGeometry x="330" y="390" width="120" height="80" as="geometry" />
        </mxCell>
        <mxCell id="l9S8WbIlqziyYuwyFxNV-6" value="Fim" style="ellipse;whiteSpace=wrap;html=1;" vertex="1" parent="1">
          <mxGeometry x="75" y="250" width="120" height="80" as="geometry" />
        </mxCell>
        <mxCell id="l9S8WbIlqziyYuwyFxNV-10" value="" style="edgeStyle=orthogonalEdgeStyle;rounded=0;orthogonalLoop=1;jettySize=auto;html=1;" edge="1" parent="1" source="l9S8WbIlqziyYuwyFxNV-7" target="l9S8WbIlqziyYuwyFxNV-6">
          <mxGeometry relative="1" as="geometry" />
        </mxCell>
        <mxCell id="l9S8WbIlqziyYuwyFxNV-7" value="Escrever &quot; Escreveste 0 vais sair de programa&quot;" style="shape=parallelogram;perimeter=parallelogramPerimeter;whiteSpace=wrap;html=1;fixedSize=1;" vertex="1" parent="1">
          <mxGeometry x="20" y="400" width="230" height="60" as="geometry" />
        </mxCell>
        <mxCell id="l9S8WbIlqziyYuwyFxNV-15" value="" style="edgeStyle=orthogonalEdgeStyle;rounded=0;orthogonalLoop=1;jettySize=auto;html=1;" edge="1" parent="1" source="l9S8WbIlqziyYuwyFxNV-12" target="l9S8WbIlqziyYuwyFxNV-14">
          <mxGeometry relative="1" as="geometry" />
        </mxCell>
        <mxCell id="l9S8WbIlqziyYuwyFxNV-16" value="Sim" style="edgeLabel;html=1;align=center;verticalAlign=middle;resizable=0;points=[];" vertex="1" connectable="0" parent="l9S8WbIlqziyYuwyFxNV-15">
          <mxGeometry x="0.0833" y="-2" relative="1" as="geometry">
            <mxPoint as="offset" />
          </mxGeometry>
        </mxCell>
        <mxCell id="l9S8WbIlqziyYuwyFxNV-18" value="" style="edgeStyle=orthogonalEdgeStyle;rounded=0;orthogonalLoop=1;jettySize=auto;html=1;" edge="1" parent="1" source="l9S8WbIlqziyYuwyFxNV-12" target="l9S8WbIlqziyYuwyFxNV-17">
          <mxGeometry relative="1" as="geometry" />
        </mxCell>
        <mxCell id="l9S8WbIlqziyYuwyFxNV-19" value="Não" style="edgeLabel;html=1;align=center;verticalAlign=middle;resizable=0;points=[];" vertex="1" connectable="0" parent="l9S8WbIlqziyYuwyFxNV-18">
          <mxGeometry x="-0.3714" y="3" relative="1" as="geometry">
            <mxPoint as="offset" />
          </mxGeometry>
        </mxCell>
        <mxCell id="l9S8WbIlqziyYuwyFxNV-12" value="N MOD = 0" style="rhombus;whiteSpace=wrap;html=1;" vertex="1" parent="1">
          <mxGeometry x="480" y="390" width="80" height="80" as="geometry" />
        </mxCell>
        <mxCell id="l9S8WbIlqziyYuwyFxNV-21" style="edgeStyle=orthogonalEdgeStyle;rounded=0;orthogonalLoop=1;jettySize=auto;html=1;entryX=1;entryY=0.5;entryDx=0;entryDy=0;" edge="1" parent="1" source="l9S8WbIlqziyYuwyFxNV-14" target="l9S8WbIlqziyYuwyFxNV-3">
          <mxGeometry relative="1" as="geometry">
            <Array as="points">
              <mxPoint x="800" y="555" />
              <mxPoint x="800" y="310" />
            </Array>
          </mxGeometry>
        </mxCell>
        <mxCell id="l9S8WbIlqziyYuwyFxNV-14" value="Escrever &quot;O número que escreveste é par&quot;" style="shape=parallelogram;perimeter=parallelogramPerimeter;whiteSpace=wrap;html=1;fixedSize=1;" vertex="1" parent="1">
          <mxGeometry x="435" y="525" width="170" height="60" as="geometry" />
        </mxCell>
        <mxCell id="l9S8WbIlqziyYuwyFxNV-20" style="edgeStyle=orthogonalEdgeStyle;rounded=0;orthogonalLoop=1;jettySize=auto;html=1;entryX=1;entryY=0.5;entryDx=0;entryDy=0;" edge="1" parent="1" source="l9S8WbIlqziyYuwyFxNV-17" target="l9S8WbIlqziyYuwyFxNV-3">
          <mxGeometry relative="1" as="geometry">
            <Array as="points">
              <mxPoint x="690" y="310" />
            </Array>
          </mxGeometry>
        </mxCell>
        <mxCell id="l9S8WbIlqziyYuwyFxNV-17" value="Escrever &quot;O número que escreveste é ímpar&quot;" style="shape=parallelogram;perimeter=parallelogramPerimeter;whiteSpace=wrap;html=1;fixedSize=1;" vertex="1" parent="1">
          <mxGeometry x="605" y="400" width="170" height="60" as="geometry" />
        </mxCell>
      </root>
    </mxGraphModel>
  </diagram>
</mxfile>
